<svg id="a251ebd6-dcb4-4813-b725-c7630ebc4638" xmlns="http://www.w3.org/2000/svg" viewBox="0 0 1226.5 140.57"><defs><style>.b3c74005-05ae-4634-8c5d-5824c0f7e582{fill:#6f011a;}</style></defs><polygon class="b3c74005-05ae-4634-8c5d-5824c0f7e582" points="520.12 0 379.55 140.57 393.69 140.57 534.26 0 520.12 0"/><path class="b3c74005-05ae-4634-8c5d-5824c0f7e582" d="M305.69,0h-17L148.12,140.57h14.14L298.46,4.37A16.62,16.62,0,0,1,305.69,0Z"/><polygon class="b3c74005-05ae-4634-8c5d-5824c0f7e582" points="133.97 140.57 274.55 0 260.4 0 119.83 140.57 133.97 140.57"/><path class="b3c74005-05ae-4634-8c5d-5824c0f7e582" d="M367.17,16.26V140.57h10s0,0,0,0V17.32A68.93,68.93,0,0,0,375,0H364.81A57.09,57.09,0,0,1,367.17,16.26Z"/><path class="b3c74005-05ae-4634-8c5d-5824c0f7e582" d="M347.17,140.57h10V16.26A47.81,47.81,0,0,0,354.36,0H343.49a37.16,37.16,0,0,1,3.68,16.26Z"/><path class="b3c74005-05ae-4634-8c5d-5824c0f7e582" d="M397.12,0H385.53a77,77,0,0,1,1.64,15.81V119.44L506.62,0H492.54L397.12,95.42Z"/><polygon class="b3c74005-05ae-4634-8c5d-5824c0f7e582" points="105.69 140.57 246.26 0 232.12 0 91.55 140.57 105.69 140.57"/><polygon class="b3c74005-05ae-4634-8c5d-5824c0f7e582" points="99.17 0 99.17 119.44 218.62 0 204.54 0 109.12 95.42 109.12 0 99.17 0"/><path class="b3c74005-05ae-4634-8c5d-5824c0f7e582" d="M79.17,0V140.57h10s0,0,0,0V0Z"/><polygon class="b3c74005-05ae-4634-8c5d-5824c0f7e582" points="407.83 140.57 421.98 140.57 562.55 0 548.4 0 407.83 140.57"/><polygon class="b3c74005-05ae-4634-8c5d-5824c0f7e582" points="436.12 140.57 450.26 140.57 590.83 0 576.69 0 436.12 140.57"/><polygon class="b3c74005-05ae-4634-8c5d-5824c0f7e582" points="464.4 140.57 478.54 140.57 619.12 0 604.97 0 464.4 140.57"/><path class="b3c74005-05ae-4634-8c5d-5824c0f7e582" d="M317.17,140.57V16.26A6.42,6.42,0,0,0,313,10a6.42,6.42,0,0,0-7.43,1.48L176.4,140.57h14.14L305.47,25.65a1,1,0,0,1,1.7.71V140.57Z"/><polygon class="b3c74005-05ae-4634-8c5d-5824c0f7e582" points="808.52 140.57 808.52 130.02 797.97 140.57 808.52 140.57"/><polygon class="b3c74005-05ae-4634-8c5d-5824c0f7e582" points="1116.55 140.57 1116.55 82.42 1058.39 140.57 1072.47 140.57 1106.52 106.52 1106.52 140.57 1116.55 140.57"/><path class="b3c74005-05ae-4634-8c5d-5824c0f7e582" d="M337.17,140.57V16.26A26.07,26.07,0,0,0,331.76,0H314.62a18.76,18.76,0,0,1,2.17.72,16.5,16.5,0,0,1,10.38,15.54V140.57Z"/><polygon class="b3c74005-05ae-4634-8c5d-5824c0f7e582" points="277.05 140.57 277.05 95.22 231.7 140.57 245.78 140.57 267.02 119.33 267.02 140.57 277.05 140.57"/><polygon class="b3c74005-05ae-4634-8c5d-5824c0f7e582" points="1096.52 140.57 1096.52 130.02 1085.97 140.57 1096.52 140.57"/><path class="b3c74005-05ae-4634-8c5d-5824c0f7e582" d="M1206.5,3.71V140.57h10V3.71c0-1.24,0-2.48-.11-3.71h-10C1206.45,1.23,1206.5,2.47,1206.5,3.71Z"/><polygon class="b3c74005-05ae-4634-8c5d-5824c0f7e582" points="828.55 140.57 828.55 82.42 770.39 140.57 784.47 140.57 818.52 106.52 818.52 140.57 828.55 140.57"/><polygon class="b3c74005-05ae-4634-8c5d-5824c0f7e582" points="139.15 0 139.15 24.31 163.46 0 139.15 0"/><polygon class="b3c74005-05ae-4634-8c5d-5824c0f7e582" points="407.12 0 407.12 71.92 479.04 0 464.96 0 417.15 47.81 417.15 0 407.12 0"/><rect class="b3c74005-05ae-4634-8c5d-5824c0f7e582" x="59.17" width="10" height="140.57"/><polygon class="b3c74005-05ae-4634-8c5d-5824c0f7e582" points="119.12 0 119.12 71.92 191.04 0 176.96 0 129.15 47.81 129.15 0 119.12 0"/><polygon class="b3c74005-05ae-4634-8c5d-5824c0f7e582" points="427.15 0 427.15 24.31 451.46 0 427.15 0"/><polygon class="b3c74005-05ae-4634-8c5d-5824c0f7e582" points="506.2 140.57 646.77 0 632.63 0 492.05 140.57 506.2 140.57"/><polygon class="b3c74005-05ae-4634-8c5d-5824c0f7e582" points="813.32 0 799.18 0 658.61 140.57 672.75 140.57 813.32 0"/><polygon class="b3c74005-05ae-4634-8c5d-5824c0f7e582" points="841.6 0 827.46 0 686.89 140.57 701.03 140.57 841.6 0"/><path class="b3c74005-05ae-4634-8c5d-5824c0f7e582" d="M1156.5,140.57V3.71a6.71,6.71,0,0,0-1-3.71h-11.75L1003.17,140.57h14.14L1144.79,13.1a1,1,0,0,1,1.71.7V140.57Z"/><polygon class="b3c74005-05ae-4634-8c5d-5824c0f7e582" points="1136.5 140.57 1136.5 34.89 1030.82 140.57 1044.89 140.57 1126.55 58.91 1126.55 140.57 1136.5 140.57"/><polygon class="b3c74005-05ae-4634-8c5d-5824c0f7e582" points="785.03 0 770.89 0 630.32 140.57 644.46 140.57 785.03 0"/><polygon class="b3c74005-05ae-4634-8c5d-5824c0f7e582" points="743.24 0 602.66 140.57 616.8 140.57 757.38 0 743.24 0"/><polygon class="b3c74005-05ae-4634-8c5d-5824c0f7e582" points="589.16 140.57 729.74 0 715.66 0 575.09 140.57 589.16 140.57"/><polygon class="b3c74005-05ae-4634-8c5d-5824c0f7e582" points="968.65 0 958.62 0 958.62 59.12 1017.73 0 1003.66 0 968.65 35.01 968.65 0"/><rect class="b3c74005-05ae-4634-8c5d-5824c0f7e582" width="9.17" height="140.57"/><path class="b3c74005-05ae-4634-8c5d-5824c0f7e582" d="M1226.5,3.26V0h-.08C1226.46,1.08,1226.5,2.17,1226.5,3.26Z"/><path class="b3c74005-05ae-4634-8c5d-5824c0f7e582" d="M1196.5,140.57V3.71c0-1.25,0-2.49-.14-3.71H1186.3c.12,1.22.2,2.46.2,3.71V140.57Z"/><path class="b3c74005-05ae-4634-8c5d-5824c0f7e582" d="M948.62,0h-10.2c0,1.08.08,2.17.08,3.26V106.89L1045.39,0h-14.15L948.62,82.62Z"/><path class="b3c74005-05ae-4634-8c5d-5824c0f7e582" d="M1176.5,140.57V3.71a27.7,27.7,0,0,0-.26-3.71h-10.11a18.65,18.65,0,0,1,.37,3.71V140.57Z"/><polygon class="b3c74005-05ae-4634-8c5d-5824c0f7e582" points="960.75 140.57 1101.32 0 1087.18 0 946.6 140.57 960.75 140.57"/><polygon class="b3c74005-05ae-4634-8c5d-5824c0f7e582" points="660.27 0 519.7 140.57 533.78 140.57 674.35 0 660.27 0"/><polygon class="b3c74005-05ae-4634-8c5d-5824c0f7e582" points="702.16 0 687.85 0 547.28 140.57 561.58 140.57 702.16 0"/><polygon class="b3c74005-05ae-4634-8c5d-5824c0f7e582" points="1115.46 0 974.89 140.57 989.03 140.57 1129.6 0 1115.46 0"/><rect class="b3c74005-05ae-4634-8c5d-5824c0f7e582" x="19.17" width="10" height="140.57"/><path class="b3c74005-05ae-4634-8c5d-5824c0f7e582" d="M918.5,3.71V138.07a7.49,7.49,0,0,0,.4,2.5h13.56L1073,0h-14.14L930.21,128.68a1,1,0,0,1-1.71-.7V4.68c0-1.57-.06-3.13-.16-4.68h-10C918.45,1.23,918.5,2.47,918.5,3.71Z"/><polygon class="b3c74005-05ae-4634-8c5d-5824c0f7e582" points="287.05 140.57 297.17 140.57 297.17 47.44 204.05 140.57 218.2 140.57 287.05 71.72 287.05 140.57"/><polygon class="b3c74005-05ae-4634-8c5d-5824c0f7e582" points="978.65 0 978.65 11.51 990.16 0 978.65 0"/><path class="b3c74005-05ae-4634-8c5d-5824c0f7e582" d="M898.5,3.71V138.07c0,.85,0,1.69.11,2.5h10.07a18,18,0,0,1-.18-2.5V3.71c0-1.25,0-2.49-.14-3.71H898.3C898.42,1.22,898.5,2.46,898.5,3.71Z"/><path class="b3c74005-05ae-4634-8c5d-5824c0f7e582" d="M838.55,140.57h10c0-.68,0-1.36,0-2V34.89L742.82,140.57h14.07l81.66-81.66Z"/><path class="b3c74005-05ae-4634-8c5d-5824c0f7e582" d="M729.31,140.57,856.79,13.1a1,1,0,0,1,1.71.7V137c0,1.19,0,2.38.1,3.56h10c0-.83-.06-1.66-.06-2.5V3.71a6.71,6.71,0,0,0-1-3.71H855.74L715.17,140.57Z"/><path class="b3c74005-05ae-4634-8c5d-5824c0f7e582" d="M888.5,138.07V3.71A27.7,27.7,0,0,0,888.24,0H878.13a18.65,18.65,0,0,1,.37,3.71V138.07c0,.84,0,1.67.07,2.5h10C888.54,139.74,888.5,138.91,888.5,138.07Z"/><rect class="b3c74005-05ae-4634-8c5d-5824c0f7e582" x="39.17" width="10" height="140.57"/></svg>
