<svg xmlns="http://www.w3.org/2000/svg" width="512" height="512" viewBox="0 0 512 512" version="1.1">
	<path d="M 230.750 37.689 C 227.587 38.516, 228.913 39.662, 234.469 40.906 C 237.477 41.579, 240.965 43.007, 242.219 44.080 L 244.500 46.031 241.500 45.265 C 236.437 43.974, 227.891 44.567, 219.419 46.798 C 210.340 49.189, 200.715 53.174, 203 53.596 C 203.825 53.748, 206.692 54.162, 209.371 54.516 C 215.257 55.293, 214.547 56.113, 206.003 58.404 C 195.174 61.307, 183.587 67.573, 177.158 74.002 C 166.020 85.140, 154.107 105.659, 151.904 117.500 C 150.032 127.564, 152.373 142.863, 159.431 166.687 L 162.153 175.874 160.088 178.687 C 157.977 181.563, 156 189.705, 156 195.525 C 156 200.987, 163.292 224.041, 164.605 222.728 C 164.873 222.460, 164.397 217.916, 163.546 212.631 C 161.575 200.380, 161.663 193.606, 163.864 188.182 L 165.617 183.865 168.892 189.134 C 171.451 193.250, 172.032 195.070, 171.549 197.451 C 171.208 199.128, 170.669 203.048, 170.351 206.162 C 169.832 211.245, 170.008 212.013, 172.078 213.662 C 175.440 216.342, 179.242 220.342, 181.297 223.360 C 183.347 226.372, 186.447 227.014, 185.595 224.250 C 182.723 214.933, 179.391 180.035, 180.798 174 L 181.614 170.500 187.807 170.597 C 191.213 170.650, 194 170.609, 194 170.506 C 194 170.404, 192.693 167.660, 191.096 164.410 C 187.598 157.293, 186 150.104, 186 141.486 C 186 134.137, 186.560 133.562, 195.829 131.392 C 200.709 130.249, 201.099 130.285, 200.444 131.822 C 196.575 140.910, 196.011 148.307, 198.539 156.818 C 200.276 162.668, 201.992 163.622, 202.016 158.750 C 202.040 153.749, 204.476 144.517, 206.698 141.008 L 208.697 137.850 209.276 144.754 C 209.595 148.552, 210.487 153.198, 211.259 155.079 L 212.663 158.500 213.230 152.321 C 214.304 140.624, 223.323 129.289, 236.595 122.955 C 242.631 120.074, 254.902 116.738, 255.970 117.688 C 256.228 117.918, 254.878 119.290, 252.970 120.738 C 243.826 127.676, 238.693 134.968, 237.154 143.206 C 236.307 147.737, 236.751 155, 237.875 155 C 238.235 155, 239.294 152.851, 240.226 150.226 C 242.226 144.596, 247.503 138.126, 253.409 134.062 C 255.736 132.461, 264.808 128.176, 273.570 124.538 C 282.331 120.900, 292.490 116.203, 296.144 114.100 L 302.788 110.276 303.389 114.032 C 303.720 116.098, 306.040 121.675, 308.546 126.426 C 311.373 131.785, 313.325 136.946, 313.689 140.024 C 314.379 145.844, 312.612 157.909, 309.927 165.711 L 308.033 171.216 311.588 170.550 C 313.543 170.183, 315.765 169.644, 316.527 169.351 C 317.288 169.059, 319.056 169.965, 320.456 171.365 C 322.836 173.745, 323 174.541, 322.996 183.705 C 322.994 189.092, 322.359 197.550, 321.586 202.500 C 319.358 216.765, 318.718 225, 319.839 225 C 320.388 225, 321.755 223.514, 322.878 221.698 C 324 219.881, 326.575 216.888, 328.598 215.047 L 332.278 211.698 331.642 202.740 C 331.041 194.271, 331.138 193.625, 333.407 190.928 C 334.728 189.358, 336.015 187.495, 336.267 186.787 C 337.070 184.536, 338.333 186.858, 339.509 192.747 C 340.379 197.103, 340.359 200.361, 339.425 206.479 C 337.637 218.180, 337.148 224.027, 338 223.500 C 338.412 223.245, 340.441 217.803, 342.509 211.407 C 345.962 200.724, 346.224 199.115, 345.722 191.639 C 345.422 187.162, 344.365 181.365, 343.374 178.756 L 341.573 174.011 345.916 156.871 C 350.141 140.199, 350.246 139.398, 349.761 127.615 C 348.952 107.995, 344.803 98.781, 332.305 88.856 C 325.924 83.788, 325.708 83.483, 328.281 83.184 C 329.776 83.010, 331 82.274, 331 81.550 C 331 79.911, 323.933 73.431, 321.199 72.563 C 319.670 72.078, 319.010 70.711, 318.495 66.962 C 317.715 61.291, 316.354 59.741, 315.421 63.459 C 314.631 66.606, 312.004 66.829, 311.990 63.750 C 311.985 62.513, 310.771 59.025, 309.294 56 L 306.607 50.500 306.054 54.922 C 305.749 57.355, 305.014 59.504, 304.419 59.699 C 302.587 60.300, 298.180 56.137, 292.459 48.401 C 289.449 44.330, 286.759 41, 286.481 41 C 286.203 41, 286.274 42.863, 286.638 45.139 L 287.300 49.279 283.400 48.554 C 279.182 47.769, 273.016 45.624, 263.386 41.591 C 254.655 37.934, 237.610 35.897, 230.750 37.689 M 297.750 102.064 C 294.587 103.696, 292 105.475, 292 106.016 C 292 107.250, 291.706 107.276, 297.627 105.518 C 303.083 103.898, 309.037 98.958, 305.424 99.048 C 304.366 99.075, 300.913 100.432, 297.750 102.064 M 317.953 106 C 318.406 107.925, 320.169 113.775, 321.871 119 C 323.573 124.225, 325.588 132.100, 326.350 136.500 C 327.514 143.226, 327.855 144.053, 328.490 141.694 C 328.905 140.151, 329.049 135.161, 328.810 130.606 C 328.449 123.720, 327.778 121.073, 324.832 114.912 C 322.883 110.835, 320.353 106.375, 319.209 105 L 317.128 102.500 317.953 106 M 201.500 180.490 C 200.950 180.662, 198.025 181.563, 195 182.492 C 188.228 184.572, 186 186.468, 186 190.155 C 186 193.397, 186.738 193.741, 188.505 191.324 C 190.791 188.198, 200.333 188.399, 209.420 191.764 L 217.340 194.697 212.343 195.360 C 209.595 195.725, 205.019 197.183, 202.173 198.601 C 198.086 200.638, 197 201.685, 197 203.589 C 197 205.711, 197.452 206, 200.778 206 C 203.325 206, 205.116 206.655, 206.278 208.012 C 207.683 209.652, 208.785 209.918, 212.250 209.449 C 219.590 208.456, 220.762 208.062, 221.413 206.367 C 221.888 205.129, 221.728 204.971, 220.773 205.732 C 218.629 207.442, 210.051 208.288, 208.438 206.948 C 206.516 205.353, 206.606 201.365, 208.582 200.607 C 210.816 199.750, 210.826 199.756, 211.180 202.250 C 211.402 203.812, 212.282 204.591, 214.059 204.798 C 217.904 205.246, 222 203.355, 222 201.132 C 222 198.391, 223.751 198.071, 229.987 199.672 C 236.496 201.343, 239.821 203.342, 240.889 206.229 C 242.070 209.422, 243.218 206.678, 242.439 202.524 C 241.444 197.224, 236.951 194.046, 220.930 187.310 C 205.647 180.884, 203.100 179.990, 201.500 180.490 M 285 186.378 C 277.025 189.820, 269.492 193.182, 268.260 193.848 C 265.325 195.435, 263 200.053, 263 204.296 L 263 207.690 266.819 204.058 C 273.447 197.752, 282 196.627, 282 202.061 C 282 203.446, 283.065 204.037, 286.488 204.550 C 292.212 205.409, 294 204.690, 294 201.531 C 294 198.702, 294.300 198.555, 297.066 200.035 C 298.130 200.605, 299 201.939, 299 203 C 299 206.647, 292.395 208.121, 285.243 206.070 C 283.460 205.558, 282 205.521, 282 205.987 C 282 206.913, 290.656 209, 294.498 209 C 295.817 209, 298.111 207.875, 299.595 206.500 C 301.078 205.125, 303.303 204, 304.539 204 C 305.775 204, 307.032 203.359, 307.333 202.575 C 308.391 199.818, 298.283 195.043, 291.128 194.921 C 288.583 194.878, 287.175 194.588, 288 194.277 C 288.825 193.966, 292.365 192.369, 295.867 190.728 C 301.505 188.086, 302.983 187.805, 308.786 188.271 C 314.127 188.700, 315.673 189.232, 317.147 191.148 C 318.950 193.493, 318.956 193.494, 318.978 191.327 C 319.030 186.238, 309.502 179.888, 302.072 180.059 C 300.657 180.092, 292.975 182.935, 285 186.378 M 227.036 202.457 C 225.986 203.722, 226.216 204.132, 228.456 204.983 C 229.927 205.543, 231.588 206, 232.148 206 C 233.701 206, 232.642 203.838, 230.339 202.309 C 228.588 201.146, 228.106 201.168, 227.036 202.457 M 274.200 202.200 C 272.409 203.991, 272.744 206.195, 274.750 205.813 C 275.712 205.630, 276.644 204.472, 276.820 203.240 C 277.171 200.778, 276.062 200.338, 274.200 202.200 M 331.123 235.169 C 327.981 237.988, 327.378 238.153, 322.455 237.538 L 317.164 236.877 315.614 244.188 C 314.761 248.210, 313.348 255.550, 312.474 260.500 C 310.037 274.299, 308.564 276.569, 290.144 294.893 C 277.275 307.695, 272.880 311.469, 270.082 312.119 C 264.897 313.325, 241.626 313.188, 238.315 311.932 C 236.767 311.345, 231.641 307.182, 226.925 302.682 C 222.208 298.182, 214.265 290.796, 209.273 286.269 C 203.702 281.217, 199.390 276.371, 198.108 273.723 C 196.615 270.640, 188.063 239.796, 188.005 237.288 C 188.002 237.171, 185.176 237.339, 181.724 237.661 C 175.927 238.203, 175.201 238.040, 172.224 235.535 C 168.458 232.366, 168.178 232.934, 171.141 237.728 C 172.455 239.854, 174.922 241.895, 177.531 243.013 C 179.868 244.015, 182.075 245.313, 182.437 245.897 C 182.798 246.482, 184.003 251.760, 185.115 257.626 C 188.467 275.308, 189.822 277.937, 201.503 289.439 C 232.946 320.399, 232.035 319.646, 239.712 321.018 C 243.884 321.764, 251.414 322.081, 258.578 321.812 C 275.164 321.191, 276.670 320.396, 293.691 303.270 C 301.286 295.628, 308.986 287.603, 310.801 285.437 L 314.103 281.500 313.560 292.265 C 312.613 311.038, 308.589 323.790, 301.799 329.527 C 297.150 333.456, 283.504 339.793, 277.114 340.990 C 270.284 342.270, 244.398 342.293, 236.500 341.026 C 227.143 339.525, 211.289 331.227, 205.523 324.814 C 202.947 321.949, 199.989 317.939, 198.951 315.904 C 196.304 310.716, 193.499 300.078, 191.989 289.500 C 191.282 284.550, 190.409 280.161, 190.048 279.746 C 188.856 278.375, 186.390 281.358, 177.512 294.913 C 164.306 315.074, 164.148 315.199, 140.821 323.855 C 120.406 331.431, 115.801 333.791, 107.673 340.841 C 101.087 346.554, 98.624 347.668, 89.895 348.882 C 83.779 349.732, 79.254 351.420, 65.694 357.907 C 56.521 362.296, 47.462 367.072, 45.563 368.520 C 40.200 372.610, 36.752 379.029, 29.456 398.500 C 25.746 408.400, 20.087 422.431, 16.879 429.679 C 6.105 454.022, 4.449 465.805, 10.081 478.024 L 13.161 484.708 10.103 489.678 C 3.726 500.042, 2.714 505.706, 6.846 507.917 C 11.911 510.628, 28.461 511.999, 55.739 511.968 C 80.711 511.940, 83.299 511.785, 81.503 510.427 C 76.837 506.902, 50.603 494.583, 40 490.938 C 30.643 487.722, 29.424 487.097, 33.456 487.585 C 46.843 489.204, 69.732 498.464, 82.620 507.473 L 89.096 512 256.059 512 L 423.023 512 428.761 508.114 C 443.799 497.931, 459.592 492.374, 484.500 488.501 C 490.061 487.636, 484.596 489.920, 472.758 493.407 C 460.057 497.149, 450.616 500.831, 437.500 507.158 L 428.500 511.500 462.963 511.763 L 497.425 512.027 502.786 509.404 C 505.734 507.961, 508.404 506.111, 508.718 505.291 C 509.371 503.591, 503.620 492.099, 500.262 488.393 L 498.023 485.922 500.762 481.782 C 503.187 478.116, 503.497 476.719, 503.472 469.571 C 503.447 462.090, 503.104 460.769, 498.786 451.500 C 496.223 446, 493.167 438.350, 491.993 434.500 C 487.285 419.051, 476.557 389.034, 473.052 381.500 C 468.272 371.228, 463.344 366.694, 449.319 359.660 C 433.501 351.728, 427.052 349.206, 419.496 347.999 C 411.392 346.705, 408.908 345.500, 401.881 339.456 C 394.920 333.468, 388.544 330.282, 371.994 324.518 C 346.856 315.764, 343.956 313.690, 330.727 295 C 327.418 290.325, 322.921 284.347, 320.733 281.715 L 316.756 276.931 318.339 271.215 C 319.209 268.072, 320.405 261.450, 320.997 256.500 C 322.425 244.557, 322.542 244.275, 326.988 242.006 C 330.835 240.044, 335.447 234.778, 334.828 233.055 C 334.648 232.551, 332.980 233.502, 331.123 235.169 M 235.216 243.184 C 233.924 244.476, 233.586 249.757, 234.622 252.458 C 235.294 254.209, 250.342 262, 253.052 262 C 255.295 262, 272.060 253.513, 273.120 251.841 C 274.264 250.034, 274.192 246.833, 272.966 245 C 272.085 243.684, 271.803 243.706, 270.667 245.186 C 269.037 247.310, 254.867 253, 251.209 253 C 247.052 253, 239.935 248.743, 238.074 245.143 C 236.785 242.650, 236.171 242.229, 235.216 243.184 M 224 269.121 C 224 271.740, 237.637 284.951, 242.666 287.203 C 249.875 290.431, 259.209 290.239, 265.180 286.740 C 271.581 282.989, 284.760 270.411, 283.500 269.256 C 282.896 268.701, 277.159 268.692, 269 269.233 C 256.052 270.092, 235.641 269.659, 227.750 268.357 C 224.927 267.891, 224 268.080, 224 269.121 M 263.500 276.255 C 260.200 276.735, 252.887 276.859, 247.250 276.532 C 241.613 276.205, 237 276.157, 237 276.426 C 237 276.695, 239.004 278.090, 241.453 279.525 C 247.350 282.981, 255.520 283.847, 261.242 281.622 C 265.638 279.913, 270.840 276.425, 269.985 275.759 C 269.718 275.552, 266.800 275.775, 263.500 276.255 M 128.619 343.034 C 124.656 344.221, 121.562 347.325, 116.378 355.315 C 112.515 361.269, 111.231 362.442, 106.228 364.590 C 90.167 371.486, 88.045 373.573, 87.414 383.097 L 86.990 389.500 89.389 384.446 C 92.802 377.259, 97.583 373.462, 106.469 370.880 C 114.823 368.453, 116.730 366.845, 121.966 357.818 C 126.154 350.597, 130.225 348, 137.357 348 C 141.791 348, 142.118 347.846, 140.872 346.345 C 139.536 344.733, 133.849 341.914, 132.282 342.086 C 131.852 342.133, 130.204 342.560, 128.619 343.034 M 373.973 344.692 C 371.563 346.341, 370.048 347.989, 370.013 349 C 370.004 349.275, 372.620 349.351, 375.826 349.170 C 380.909 348.882, 382.051 349.172, 384.741 351.436 C 386.438 352.863, 389.174 356.912, 390.822 360.433 C 394.206 367.665, 396.177 369.248, 404 371.022 C 414.329 373.363, 417.211 375.823, 419.986 384.664 L 421.818 390.500 421.909 383.315 C 422.058 371.584, 420.778 370.028, 407.632 365.968 C 400.444 363.748, 399.810 363.153, 394.098 353.254 C 391.509 348.768, 388.809 345.435, 387.008 344.504 C 383.148 342.508, 377.035 342.596, 373.973 344.692 M 184.790 350.917 C 186.753 354.538, 191.538 362.225, 195.423 368 C 199.309 373.775, 202.567 378.651, 202.663 378.835 C 202.759 379.020, 219.732 379.173, 240.382 379.175 C 280.423 379.180, 283.209 378.895, 288.156 374.283 C 291.787 370.897, 295.146 355.702, 293.613 349.594 C 293.036 347.294, 292.520 347.130, 284.750 346.764 C 280.213 346.551, 258.725 346.797, 237 347.312 C 199.425 348.202, 197.103 348.153, 189.361 346.291 L 181.222 344.335 184.790 350.917 M 194.539 355.750 C 195.512 357.262, 198.550 361.538, 201.291 365.250 L 206.275 372 229.687 372 C 254.731 372, 257.062 371.605, 260.439 366.783 C 262.741 363.497, 262.361 361.207, 258.948 357.794 L 255.896 354.742 245.198 355.407 C 215.585 357.247, 215.851 357.249, 205.343 355.088 C 192.309 352.408, 192.386 352.404, 194.539 355.750 M 56.766 365.652 L 53.031 367.201 56.400 371.351 C 62.274 378.585, 69.081 389.878, 74.528 401.425 C 79.533 412.036, 81.481 417.710, 88.972 443.500 C 91.411 451.896, 95.037 460.063, 104.290 478 C 116.040 500.778, 116.436 501.392, 117.169 498 C 118.074 493.813, 116.668 481.090, 114.682 475.492 C 113.900 473.288, 110.695 466.370, 107.560 460.119 C 102.833 450.695, 101.273 446.171, 98.420 433.627 C 94.202 415.078, 94.205 415.089, 86.305 396 C 78.087 376.144, 73.463 368.892, 66.800 365.411 C 63.425 363.648, 61.485 363.695, 56.766 365.652 M 441.366 365.919 C 436.954 368.609, 433.622 373.325, 427.946 384.914 C 416.802 407.666, 414.510 414.274, 408.489 441 C 407.560 445.125, 404.183 454.800, 400.984 462.500 C 394.843 477.284, 393 484.618, 393 494.267 C 393 498.520, 393.349 500.062, 394.250 499.792 C 395.873 499.306, 406.597 477.869, 412.981 462.350 C 415.730 455.667, 419.766 443.292, 421.949 434.850 C 426.309 417.993, 428.767 411.348, 436.024 396.795 C 441.310 386.196, 447.346 376.837, 452.760 370.844 L 456.236 366.997 452.650 365.498 C 447.895 363.511, 445.145 363.614, 441.366 365.919 M 141.909 391.896 C 127.984 396.351, 118.859 407.742, 120.598 418.500 C 122.199 428.412, 128.160 435.564, 137.368 438.622 C 144.013 440.829, 157.309 440.055, 165.381 436.991 C 179.901 431.479, 187.795 416.360, 182.042 405.082 C 179.231 399.573, 171.632 393.265, 165.672 391.495 C 159.001 389.514, 148.817 389.686, 141.909 391.896 M 149.642 396.501 C 148.817 397.326, 147.610 400.589, 146.961 403.751 C 144.901 413.788, 141.021 424.821, 138.497 427.821 C 135.819 431.004, 136.105 432, 139.699 432 C 143.888 432, 148.239 429.501, 161.336 419.571 C 168.396 414.218, 174.340 410.007, 174.546 410.212 C 175.128 410.795, 172.307 422.066, 170.506 426.352 C 169.294 429.238, 169.212 430.096, 170.179 429.774 C 172.118 429.127, 176.243 416.201, 176.330 410.500 C 176.428 404.050, 174.278 400.816, 167.720 397.548 C 161.700 394.548, 152.148 393.994, 149.642 396.501 M 155.123 398.250 C 153.714 402.080, 150.705 419.038, 151.324 419.658 C 151.941 420.274, 166.364 410.842, 171.500 406.463 L 174.500 403.906 171.150 401.046 C 168.098 398.442, 161.509 396, 157.532 396 C 156.662 396, 155.578 397.012, 155.123 398.250 M 134.707 400.090 C 132.645 401.789, 130.293 404.467, 129.479 406.040 C 127.557 409.758, 127.576 420.048, 129.513 424.686 C 131.235 428.807, 132.599 428.706, 131.028 424.574 C 129.735 421.172, 129.691 410.943, 130.955 407.617 C 131.481 406.235, 133.558 403.281, 135.572 401.052 C 139.957 396.198, 139.732 395.948, 134.707 400.090 M 323.207 408.416 C 320.618 410.844, 317.687 414.219, 316.693 415.916 L 314.887 419 323.099 419 C 330.318 419, 331.708 418.698, 334.589 416.500 C 337.967 413.923, 340.326 413.074, 338.200 415.200 C 336.656 416.744, 336.674 417.661, 338.250 417.689 C 338.938 417.701, 349.077 418.297, 360.783 419.012 L 382.065 420.312 384.791 417.701 C 386.289 416.265, 388.306 413.753, 389.271 412.118 L 391.026 409.147 385.763 408.585 C 382.868 408.277, 374.650 407.544, 367.500 406.958 C 360.350 406.372, 351.575 405.475, 348 404.966 C 344.425 404.456, 338.443 404.031, 334.707 404.020 C 328.043 404, 327.825 404.083, 323.207 408.416 M 32.304 418.174 C 29.887 421.178, 25.902 430.302, 26.672 431.071 C 27.127 431.527, 33.037 433.142, 39.805 434.660 C 48.821 436.683, 52.551 437.142, 53.763 436.378 C 55.756 435.121, 62.939 424.968, 62.975 423.358 C 62.996 422.376, 55.068 420.580, 36.936 417.460 C 34.543 417.049, 33.021 417.283, 32.304 418.174 M 308.572 428.877 L 304.321 435.500 309.910 436.154 C 324.470 437.857, 356.128 440.110, 361.444 439.822 L 367.388 439.500 373.150 432.500 C 376.319 428.650, 378.931 425.163, 378.956 424.750 C 378.980 424.337, 374.092 424, 368.093 424 L 357.186 424 353 429 C 349.691 432.952, 348.187 434, 345.824 434 C 344.179 434, 342.995 433.663, 343.193 433.250 C 343.390 432.837, 344.409 430.818, 345.455 428.763 C 346.502 426.707, 347.165 424.845, 346.929 424.625 C 346.693 424.405, 343.800 423.925, 340.500 423.558 L 334.500 422.891 330.191 428.445 C 324.537 435.735, 321.959 435.988, 325.550 428.901 C 326.972 426.096, 327.992 423.679, 327.817 423.530 C 327.643 423.381, 324.198 423.032, 320.161 422.756 L 312.823 422.254 308.572 428.877 M 476.441 424.555 C 474.611 426.022, 474.643 426.042, 477 424.920 C 480.061 423.462, 480.628 423, 479.358 423 C 478.821 423, 477.509 423.700, 476.441 424.555 M 469.500 426.507 C 468.950 426.699, 464.113 427.155, 458.750 427.521 L 449 428.187 449 432.012 C 449 438.790, 449.477 439.190, 455.036 437.078 C 460.683 434.933, 472.636 428.398, 473.515 426.976 C 474.088 426.048, 471.637 425.761, 469.500 426.507 M 24.596 454.845 C 24.308 455.310, 23.825 457.673, 23.521 460.095 L 22.969 464.500 24.515 459.750 C 25.365 457.137, 26.497 455, 27.030 455 C 27.564 455, 28 457.889, 28 461.420 L 28 467.840 34.779 469.382 C 38.507 470.230, 47.048 471.804, 53.758 472.881 C 67.959 475.160, 72.710 477.236, 81.100 484.829 C 84.393 487.809, 87.275 490.058, 87.506 489.827 C 88.509 488.825, 78.635 477.896, 70.677 471.200 C 65.904 467.185, 62 463.692, 62 463.438 C 62 463.184, 63.743 463.255, 65.874 463.596 C 68.005 463.937, 69.998 463.813, 70.302 463.321 C 70.606 462.829, 64.250 461.376, 56.177 460.092 C 48.105 458.808, 38.350 456.923, 34.500 455.902 C 26.538 453.792, 25.326 453.663, 24.596 454.845 M 465.360 457.487 C 459.784 458.778, 453.709 460.607, 451.860 461.550 C 446.585 464.244, 421.680 490, 424.350 490 C 424.618 490, 427.236 487.921, 430.168 485.379 C 437.715 478.839, 445.586 475.467, 458.882 473.076 C 474.909 470.195, 476.626 468.910, 479.364 457.750 C 480.212 454.290, 479.249 454.272, 465.360 457.487 M 41 464.400 C 42.375 465.935, 44.850 467.874, 46.500 468.709 C 50.001 470.482, 49.202 469.632, 43 464.983 C 38.880 461.895, 38.711 461.846, 41 464.400 M 439.582 463.316 C 438.592 464.040, 437.944 465.432, 438.141 466.409 C 438.436 467.869, 438.905 467.636, 440.780 465.093 C 443.166 461.856, 442.642 461.079, 439.582 463.316 M 146.500 471.554 C 140.450 472.246, 134.938 472.854, 134.250 472.906 C 133.498 472.963, 133 474.440, 133 476.617 C 133 479.882, 133.219 480.174, 135.250 479.621 C 136.488 479.284, 142.900 478.282, 149.500 477.395 C 166.824 475.065, 166 475.311, 166 472.481 C 166 470.206, 165.648 470.012, 161.750 470.148 C 159.412 470.230, 152.550 470.863, 146.500 471.554 M 294.607 473.582 C 293.815 475.646, 293.826 485.882, 294.625 489.875 L 295.250 493 314.125 493 L 333 493 333 483.136 L 333 473.272 328.360 472.636 C 325.809 472.286, 317.307 472, 309.467 472 C 297.393 472, 295.121 472.242, 294.607 473.582 M 210 479.500 C 210 484.611, 210.321 486, 211.500 486 C 212.433 486, 213 485.056, 213 483.500 C 213 480.494, 214.523 480.240, 216 483 C 217.124 485.101, 220.446 485.705, 221.500 484 C 222.396 482.551, 229.748 482.760, 230.280 484.250 C 230.525 484.938, 231.070 485.180, 231.490 484.790 C 231.910 484.399, 231.136 481.946, 229.770 479.338 C 227.297 474.614, 225 472.615, 225 475.185 C 225 475.928, 223.829 478.259, 222.398 480.365 C 220.473 483.197, 219.503 483.903, 218.673 483.073 C 217.843 482.243, 217.869 481.439, 218.775 479.989 C 221.671 475.352, 219.868 473, 213.418 473 L 210 473 210 479.500 M 197.578 479.610 C 194.555 486.214, 194.308 488.409, 196.944 485.250 C 198.821 483, 204 482.082, 204 484 C 204 484.550, 204.683 485, 205.517 485 C 206.740 485, 206.550 484.045, 204.536 480.071 C 203.162 477.360, 201.615 474.880, 201.097 474.560 C 200.580 474.240, 198.996 476.513, 197.578 479.610 M 337.214 483.750 L 337.500 493.500 348.500 494.176 C 354.550 494.548, 363.438 495.081, 368.250 495.361 L 377 495.870 377 486.496 L 377 477.123 372.750 476.537 C 366.232 475.638, 346.021 474.018, 341.214 474.009 L 336.928 474 337.214 483.750 M 183.861 476.920 C 181.725 478.657, 181.337 478.693, 179.787 477.299 C 178.845 476.451, 177.379 476.024, 176.529 476.351 C 172.709 477.816, 172.087 486.329, 175.698 487.714 C 176.599 488.060, 178.563 487.639, 180.062 486.779 C 182.502 485.379, 182.946 485.375, 184.309 486.737 C 187.637 490.065, 194.999 484.723, 193.517 480.055 C 191.913 475.001, 187.845 473.680, 183.861 476.920 M 213 477.430 C 213 478.451, 213.903 479, 215.583 479 C 218.716 479, 218.373 476.652, 215.172 476.180 C 213.729 475.968, 213 476.388, 213 477.430 M 185.583 478.645 C 185.262 479.480, 185 481.285, 185 482.655 C 185 486.498, 188.416 485.343, 188.804 481.369 C 189.131 478.014, 186.635 475.903, 185.583 478.645 M 176.607 479.582 C 175.556 482.319, 175.945 485, 177.393 485 C 178.922 485, 180 482.899, 180 479.918 C 180 477.608, 177.461 477.356, 176.607 479.582 M 224.500 480 C 224.160 480.550, 224.584 481, 225.441 481 C 226.298 481, 227 480.550, 227 480 C 227 479.450, 226.577 479, 226.059 479 C 225.541 479, 224.840 479.450, 224.500 480 M 148 485.678 C 144.975 485.848, 140.588 486.242, 138.250 486.554 L 134 487.123 134 492.561 C 134 498.972, 132.396 498.621, 152 496.500 C 159.425 495.697, 165.838 495.031, 166.250 495.020 C 166.662 495.009, 167 492.750, 167 490 L 167 485 160.250 485.185 C 156.537 485.287, 151.025 485.509, 148 485.678" stroke="none" fill="black" fill-rule="evenodd"/>
</svg>